<svg width="16" height="16" viewBox="0 0 16 16" fill="none" xmlns="http://www.w3.org/2000/svg">
<path fill-rule="evenodd" clip-rule="evenodd" d="M11.2969 2.00099C11.309 2.00033 11.3211 2 11.3332 2C12.0404 2 12.7187 2.28095 13.2188 2.78105C13.7189 3.28115 13.9998 3.95942 13.9998 4.66667C13.9998 4.67877 13.9995 4.69088 13.9988 4.70296C13.9271 6.01951 13.4665 7.28521 12.6754 8.34001C11.9722 9.27759 11.0359 10.0111 9.96304 10.4699C9.88048 11.1046 9.66797 11.7173 9.33698 12.269C8.9287 12.9494 8.35363 13.5145 7.66614 13.9109C7.47202 14.0228 7.23466 14.0297 7.03436 13.9293C6.83406 13.8289 6.69761 13.6345 6.67116 13.412C6.63984 13.1485 6.58629 12.8896 6.51174 12.6378C6.15254 13.0033 5.73362 13.3092 5.27026 13.5408C4.43882 13.9566 3.50216 14.1145 2.58037 13.9944C2.2805 13.9553 2.04449 13.7193 2.00542 13.4195C1.88533 12.4977 2.04326 11.561 2.45899 10.7296C2.69067 10.2662 2.99653 9.8473 3.36205 9.4881C3.11028 9.41354 2.85136 9.35999 2.58783 9.32868C2.36532 9.30223 2.17099 9.16578 2.07055 8.96548C1.97012 8.76518 1.97703 8.52782 2.08894 8.3337C2.48529 7.6462 3.05041 7.07114 3.73088 6.66285C4.28253 6.33187 4.89521 6.11935 5.52999 6.0368C5.98872 4.96389 6.72225 4.02762 7.65983 3.32443C8.71463 2.53333 9.98033 2.07277 11.2969 2.00099ZM4.67908 10.1159C4.24563 10.4295 3.89245 10.8441 3.65155 11.3259C3.43707 11.7548 3.31865 12.223 3.30175 12.6981C3.77682 12.6812 4.245 12.5628 4.67397 12.3483C5.15577 12.1074 5.57029 11.7542 5.88389 11.3207C5.72299 11.0865 5.54016 10.8661 5.33694 10.6629C5.13372 10.4597 4.91336 10.2768 4.67908 10.1159ZM11.35 3.33344C10.3038 3.39432 9.29848 3.76211 8.45983 4.3911C7.61599 5.02398 6.97876 5.89287 6.62873 6.8879C6.53752 7.14717 6.29654 7.3239 6.02184 7.33297C5.45532 7.35168 4.90293 7.51455 4.41688 7.80618C4.2097 7.93048 4.0175 8.07643 3.84322 8.24102C4.75723 8.52954 5.59431 9.03465 6.27975 9.72009C6.96519 10.4055 7.4703 11.2426 7.75882 12.1566C7.92341 11.9823 8.06936 11.7901 8.19366 11.583C8.48529 11.0969 8.64816 10.5445 8.66687 9.978C8.67594 9.7033 8.85266 9.46232 9.11194 9.37111C10.107 9.02108 10.9759 8.38385 11.6087 7.54001C12.2377 6.70136 12.6055 5.69606 12.6664 4.6498C12.662 4.30228 12.5221 3.96993 12.276 3.72386C12.0299 3.47779 11.6976 3.33783 11.35 3.33344ZM9.05703 5.05719C9.30708 4.80714 9.64621 4.66667 9.99984 4.66667C10.3535 4.66667 10.6926 4.80714 10.9426 5.05719C11.1927 5.30724 11.3332 5.64638 11.3332 6C11.3332 6.35362 11.1927 6.69276 10.9426 6.94281C10.6926 7.19286 10.3535 7.33333 9.99984 7.33333C9.64621 7.33333 9.30708 7.19286 9.05703 6.94281C8.80698 6.69276 8.6665 6.35362 8.6665 6C8.6665 5.64638 8.80698 5.30724 9.05703 5.05719Z" fill="black"/>
</svg>
